<svg width="134" height="17" viewBox="0 0 134 17" fill="none" xmlns="http://www.w3.org/2000/svg">
<path d="M2.88525 16.9483H0.871582V0.0253906H11.2199C12.2394 0.0253906 12.9998 0.0724716 13.5012 0.165506C14.0022 0.259104 14.4014 0.501275 14.6991 0.891737C14.996 1.28304 15.1452 1.92836 15.1452 2.82882V6.65169C15.1452 7.55243 15.0048 8.19803 14.7245 8.58877C14.4443 8.9798 14.0619 9.22197 13.5776 9.315C13.0932 9.40832 12.3581 9.45512 11.3727 9.45512L15.1195 16.9991H13.0805L9.33368 9.45512H2.88525V16.948V16.9483ZM11.1689 1.55454H2.91063L2.88497 7.92597H11.1689C11.6786 7.92597 12.0565 7.90483 12.3032 7.86226C12.5493 7.81997 12.7492 7.70917 12.902 7.53072C13.0551 7.35226 13.1315 7.05934 13.1315 6.6514V2.82882C13.1315 2.42116 13.0551 2.12796 12.902 1.94951C12.7492 1.77105 12.5493 1.66082 12.3032 1.61797C12.0567 1.57568 11.6786 1.55425 11.1689 1.55425V1.55454Z" fill="#191919"/>
<path d="M20.8547 16.999C19.8352 16.999 19.0745 16.9525 18.5735 16.8589C18.0722 16.7656 17.6724 16.5237 17.3755 16.1327C17.078 15.7419 16.9294 15.0963 16.9294 14.1956V12.1567C16.9294 11.2565 17.078 10.6109 17.3755 10.2199C17.6724 9.82918 18.0722 9.587 18.5735 9.49369C19.0745 9.40037 19.8352 9.35329 20.8547 9.35329H28.8071V7.05957C28.8071 6.65163 28.7219 6.35843 28.5522 6.18026C28.3822 6.0018 28.1611 5.89157 27.8893 5.849C27.6175 5.80671 27.2177 5.78529 26.6913 5.78529H18.0507V4.25586H26.9205C27.9401 4.25586 28.7005 4.30294 29.2018 4.39626C29.7028 4.48985 30.102 4.73203 30.3998 5.12249C30.6967 5.51351 30.8458 6.15911 30.8458 7.05957V16.999H20.8544H20.8547ZM20.9311 15.4699H28.8071V10.8822H20.9311C20.4214 10.8822 20.043 10.9039 19.7969 10.9459C19.5504 10.9884 19.3508 11.0987 19.198 11.2771C19.0452 11.4556 18.9688 11.7488 18.9688 12.1564V14.1953C18.9688 14.603 19.0452 14.8962 19.198 15.0746C19.3508 15.2531 19.5504 15.3636 19.7969 15.4062C20.043 15.4487 20.4214 15.4699 20.9311 15.4699Z" fill="#191919"/>
<path d="M36.8108 16.9991C35.7913 16.9991 35.0306 16.9526 34.5295 16.859C34.0282 16.7656 33.6284 16.5237 33.3315 16.1327C33.0341 15.742 32.8855 15.0964 32.8855 14.1956V7.05963C32.8855 6.15917 33.0341 5.51357 33.3315 5.12254C33.6284 4.7318 34.0282 4.48991 34.5295 4.39631C35.0306 4.30299 35.7913 4.25591 36.8108 4.25591H45.069V0.0253906H47.1081V16.9991H36.8108ZM36.8618 15.4699H45.0436V5.78534H36.8618C36.352 5.78534 35.9737 5.80677 35.7275 5.84905C35.4811 5.89162 35.2815 6.00186 35.1284 6.18031C34.9756 6.35877 34.8992 6.65197 34.8992 7.05963V14.1956C34.8992 14.6033 34.9756 14.8965 35.1284 15.0749C35.2815 15.2534 35.4808 15.3639 35.7275 15.4065C35.9737 15.4491 36.352 15.4702 36.8618 15.4702V15.4699Z" fill="#191919"/>
<path d="M51.9472 0.0253906V2.31911H49.9082V0.0253906H51.9472ZM51.9472 4.25591V16.9991H49.9082V4.25591H51.9472Z" fill="#191919"/>
<path d="M58.6787 16.999C57.6591 16.999 56.8984 16.9525 56.3977 16.8589C55.8961 16.7656 55.4966 16.5237 55.1994 16.1327C54.9022 15.7419 54.7537 15.0963 54.7537 14.1956V12.1567C54.7537 11.2565 54.9022 10.6109 55.1994 10.2199C55.4966 9.82918 55.8961 9.587 56.3977 9.49369C56.8984 9.40037 57.6594 9.35329 58.6787 9.35329H66.6313V7.05957C66.6313 6.65163 66.5453 6.35843 66.3758 6.18026C66.2064 6.0018 65.9851 5.89157 65.7133 5.849C65.4415 5.80671 65.0422 5.78529 64.515 5.78529H55.875V4.25586H64.7448C65.7643 4.25586 66.5241 4.30294 67.0257 4.39626C67.5265 4.48985 67.926 4.73203 68.224 5.12249C68.5203 5.51351 68.6698 6.15911 68.6698 7.05957V16.999H58.6784H58.6787ZM58.7553 15.4699H66.6316V10.8822H58.7553C58.2456 10.8822 57.8672 10.9039 57.6211 10.9459C57.3746 10.9884 57.1747 11.0987 57.0219 11.2771C56.8691 11.4556 56.7927 11.7488 56.7927 12.1564V14.1953C56.7927 14.603 56.8688 14.8962 57.0219 15.0746C57.1747 15.2531 57.3744 15.3636 57.6211 15.4062C57.8672 15.4487 58.2456 15.4699 58.7553 15.4699Z" fill="#191919"/>
<path d="M72.9763 2.80343V14.1959C72.9763 14.6036 73.0612 14.8968 73.2309 15.0752C73.4003 15.2537 73.6217 15.3642 73.8935 15.4068C74.1653 15.4493 74.5645 15.4705 75.0918 15.4705H85.2106V16.9996H74.8622C73.8427 16.9996 73.082 16.9531 72.5813 16.8595C72.0797 16.7662 71.6802 16.5243 71.383 16.1333C71.0858 15.7425 70.9373 15.0969 70.9373 14.1962V2.80343C70.9373 1.90325 71.0858 1.25765 71.383 0.866628C71.6802 0.475884 72.0797 0.233713 72.5813 0.140397C73.082 0.047081 73.843 0 74.8622 0H85.2106V1.52914H75.0918C74.5645 1.52914 74.1653 1.55085 73.8935 1.59286C73.6217 1.63543 73.4003 1.74566 73.2309 1.92412C73.0609 2.10257 72.9763 2.39577 72.9763 2.80343Z" fill="#191919"/>
<path d="M87.7198 5.11732C88.0167 4.72658 88.4159 4.48469 88.9175 4.39109C89.4182 4.29778 90.1792 4.25098 91.1984 4.25098H97.6218C98.6413 4.25098 99.4017 4.29778 99.9027 4.39109C100.404 4.48469 100.803 4.72686 101.101 5.11732C101.398 5.50835 101.547 6.15395 101.547 7.05441V14.1965C101.547 15.0972 101.398 15.7429 101.101 16.1336C100.803 16.5246 100.404 16.7668 99.9027 16.8598C99.4014 16.9531 98.641 16.9999 97.6218 16.9999H91.1984C90.1789 16.9999 89.4182 16.9534 88.9175 16.8598C88.4159 16.7665 88.0164 16.5246 87.7198 16.1336C87.422 15.7429 87.2734 15.0972 87.2734 14.1965V7.05441C87.2734 6.15395 87.422 5.50835 87.7198 5.11732ZM89.5674 15.0758C89.7374 15.2543 89.9581 15.3648 90.2302 15.4074C90.502 15.4499 90.9013 15.4711 91.4279 15.4711H97.3923C97.9189 15.4711 98.3185 15.4499 98.5905 15.4074C98.8618 15.3651 99.0831 15.2543 99.2531 15.0758C99.4226 14.8974 99.5083 14.6042 99.5083 14.1965V7.05441C99.5083 6.64647 99.4228 6.35327 99.2531 6.17509C99.0831 5.99664 98.8618 5.88641 98.5905 5.84384C98.3185 5.80155 97.9189 5.78012 97.3923 5.78012H91.4279C90.9013 5.78012 90.5017 5.80155 90.2302 5.84384C89.9581 5.88641 89.7371 5.99664 89.5674 6.17509C89.3974 6.35355 89.3128 6.64675 89.3128 7.05441V14.1965C89.3128 14.6042 89.3976 14.8974 89.5674 15.0758Z" fill="#191919"/>
<path d="M107.509 16.9991C106.489 16.9991 105.729 16.9526 105.228 16.859C104.726 16.7656 104.327 16.5237 104.03 16.1327C103.732 15.742 103.584 15.0964 103.584 14.1956V7.05963C103.584 6.15917 103.732 5.51357 104.03 5.12254C104.327 4.7318 104.726 4.48991 105.228 4.39631C105.729 4.30299 106.489 4.25591 107.509 4.25591H115.767V0.0253906H117.806V16.9991H107.509ZM107.56 15.4699H115.742V5.78534H107.56C107.05 5.78534 106.672 5.80677 106.425 5.84905C106.179 5.89162 105.98 6.00186 105.827 6.18031C105.674 6.35877 105.597 6.65197 105.597 7.05963V14.1956C105.597 14.6033 105.674 14.8965 105.827 15.0749C105.98 15.2534 106.179 15.3639 106.425 15.4065C106.672 15.4491 107.05 15.4702 107.56 15.4702V15.4699Z" fill="#191919"/>
<path d="M121.887 10.2206H131.726V7.06027C131.726 6.65233 131.641 6.35913 131.471 6.18095C131.301 6.0025 131.08 5.89227 130.808 5.8497C130.536 5.80741 130.137 5.78598 129.61 5.78598H124.003C123.476 5.78598 123.076 5.80741 122.805 5.8497C122.533 5.89227 122.312 6.0025 122.142 6.18095C121.972 6.35941 121.887 6.65261 121.887 7.06027V14.1963C121.887 14.6039 121.972 14.8971 122.142 15.0756C122.312 15.254 122.533 15.3646 122.805 15.4071C123.077 15.4497 123.476 15.4708 124.003 15.4708H133.179V17H123.773C122.754 17 121.993 16.9535 121.492 16.8599C120.991 16.7666 120.591 16.5247 120.294 16.1336C119.997 15.7429 119.848 15.0973 119.848 14.1966V7.06055C119.848 6.16009 119.997 5.51449 120.294 5.12346C120.591 4.73272 120.991 4.49083 121.492 4.39723C121.993 4.30392 122.754 4.25684 123.773 4.25684H129.84C130.859 4.25684 131.619 4.30392 132.12 4.39723C132.622 4.49083 133.021 4.733 133.319 5.12346C133.616 5.51449 133.765 6.16009 133.765 7.06055V11.75H121.887V10.2209L121.887 10.2206Z" fill="#191919"/>
</svg>
